<svg width="34" height="35" viewBox="0 0 34 35" fill="none" xmlns="http://www.w3.org/2000/svg">
<path d="M16.7361 16.5439C15.8114 16.5439 14.9246 16.1649 14.2707 15.4905C13.6168 14.816 13.2495 13.9012 13.2495 12.9474C13.2495 11.9935 13.6168 11.0787 14.2707 10.4043C14.9246 9.7298 15.8114 9.35088 16.7361 9.35088C17.6608 9.35088 18.5476 9.7298 19.2015 10.4043C19.8553 11.0787 20.2227 11.9935 20.2227 12.9474C20.2227 13.4197 20.1325 13.8873 19.9573 14.3237C19.7821 14.76 19.5252 15.1565 19.2015 15.4905C18.8777 15.8244 18.4934 16.0894 18.0703 16.2701C17.6473 16.4508 17.194 16.5439 16.7361 16.5439ZM16.7361 2.8772C14.1469 2.8772 11.6638 3.93816 9.83299 5.82668C8.00217 7.71521 6.97363 10.2766 6.97363 12.9474C6.97363 20.5 16.7361 31.6491 16.7361 31.6491C16.7361 31.6491 26.4985 20.5 26.4985 12.9474C26.4985 10.2766 25.47 7.71521 23.6392 5.82668C21.8084 3.93816 19.3252 2.8772 16.7361 2.8772Z" fill="#F49C0B"/>
</svg>
