<svg width="34" height="35" viewBox="0 0 34 35" fill="none" xmlns="http://www.w3.org/2000/svg">
<path d="M5.57833 28.7719C4.81128 28.7719 4.15488 28.4905 3.60911 27.9275C3.06334 27.3645 2.78999 26.6869 2.78906 25.8947V8.63159C2.78906 7.84036 3.06241 7.16326 3.60911 6.60029C4.15581 6.03732 4.81221 5.75535 5.57833 5.75439H27.8925C28.6596 5.75439 29.3164 6.03636 29.8631 6.60029C30.4098 7.16422 30.6827 7.84132 30.6818 8.63159V25.8947C30.6818 26.686 30.4089 27.3636 29.8631 27.9275C29.3174 28.4914 28.6605 28.7729 27.8925 28.7719H5.57833ZM16.7354 18.7018L27.8925 11.5088V8.63159L16.7354 15.8246L5.57833 8.63159V11.5088L16.7354 18.7018Z" fill="#F49C0B"/>
</svg>
