<svg width="34" height="35" viewBox="0 0 34 35" fill="none" xmlns="http://www.w3.org/2000/svg">
<path d="M27.8227 30.2105C24.9172 30.2105 22.0466 29.5574 19.2108 28.2512C16.375 26.9449 13.795 25.0925 11.4706 22.6939C9.14617 20.2952 7.35081 17.6338 6.08448 14.7097C4.81815 11.7855 4.18452 8.82436 4.18359 5.82632C4.18359 5.39474 4.32306 5.03509 4.60198 4.74737C4.88091 4.45966 5.22957 4.3158 5.64796 4.3158H11.2962C11.6217 4.3158 11.9122 4.42992 12.1679 4.65818C12.4236 4.88644 12.5747 5.15594 12.6211 5.46667L13.5277 10.5018C13.5741 10.8854 13.5625 11.2091 13.4928 11.4728C13.4231 11.7366 13.2952 11.9643 13.1093 12.1561L9.72727 15.6807C10.1922 16.5678 10.744 17.4248 11.3827 18.2515C12.0214 19.0782 12.7248 19.8757 13.4928 20.6439C14.2134 21.3871 14.9688 22.0767 15.7591 22.7126C16.5494 23.3484 17.3861 23.9296 18.2694 24.4561L21.5468 21.0754C21.756 20.8597 22.0294 20.6981 22.3669 20.5906C22.7044 20.4832 23.0354 20.453 23.3598 20.5L28.1713 21.507C28.4967 21.6029 28.7641 21.777 28.9732 22.0292C29.1824 22.2815 29.287 22.563 29.287 22.8737V28.7C29.287 29.1316 29.1476 29.4912 28.8687 29.779C28.5897 30.0667 28.2411 30.2105 27.8227 30.2105Z" fill="#F49C0B"/>
</svg>
