<svg width="34" height="35" viewBox="0 0 34 35" fill="none" xmlns="http://www.w3.org/2000/svg">
<path d="M16.7349 28.775C19.6938 28.775 22.5316 27.5623 24.6239 25.4038C26.7161 23.2453 27.8916 20.3176 27.8916 17.265C27.8916 14.2124 26.7161 11.2847 24.6239 9.1262C22.5316 6.96766 19.6938 5.755 16.7349 5.755C13.776 5.755 10.9382 6.96766 8.84594 9.1262C6.75366 11.2847 5.57823 14.2124 5.57823 17.265C5.57823 20.3176 6.75366 23.2453 8.84594 25.4038C10.9382 27.5623 13.776 28.775 16.7349 28.775ZM16.7349 2.8775C18.5663 2.8775 20.3798 3.24965 22.0717 3.97269C23.7637 4.69573 25.3011 5.7555 26.5961 7.0915C27.8911 8.42751 28.9183 10.0136 29.6192 11.7591C30.32 13.5047 30.6807 15.3756 30.6807 17.265C30.6807 21.0808 29.2114 24.7403 26.5961 27.4385C23.9807 30.1367 20.4336 31.6525 16.7349 31.6525C9.02285 31.6525 2.78906 25.1781 2.78906 17.265C2.78906 13.4492 4.25835 9.78968 6.8737 7.0915C9.48905 4.39332 13.0362 2.8775 16.7349 2.8775ZM17.4322 10.0713V17.6247L23.7078 21.4662L22.6619 23.2358L15.3403 18.7038V10.0713H17.4322Z" fill="#F49C0B"/>
</svg>
